<svg xmlns="http://www.w3.org/2000/svg" viewBox="0 0 546.23 135.7"><defs><style>.cls-1{fill:#e30613;}</style></defs><g id="Calque_2" data-name="Calque 2"><g id="Spect_rouge" data-name="Spect rouge"><path class="cls-1" d="M526,36.12a26.93,26.93,0,0,0-10.76,2,16.88,16.88,0,0,0-7.14,5.46,12.85,12.85,0,0,0-2.49,7.75,13.39,13.39,0,0,0,3.66,9.59q3.68,3.86,11.09,6a67.62,67.62,0,0,1,6.87,2.2,6.78,6.78,0,0,1,2.91,1.93,4.72,4.72,0,0,1,.75,2.82A3.87,3.87,0,0,1,529,77.39a9.89,9.89,0,0,1-5.31,1.22,21.3,21.3,0,0,1-13.25-4.89l-7.24,8.09a26.92,26.92,0,0,0,9.17,5.45,33.73,33.73,0,0,0,11.7,2,30.77,30.77,0,0,0,11.28-2,18.32,18.32,0,0,0,8-5.69,13.81,13.81,0,0,0,2.91-8.79q0-6.39-3.8-10T530.82,56.9a60.56,60.56,0,0,1-6.68-2.26,7.56,7.56,0,0,1-2.86-1.83,3.61,3.61,0,0,1-.71-2.3,3.13,3.13,0,0,1,1.55-2.78,8.35,8.35,0,0,1,4.47-1A22.87,22.87,0,0,1,538.9,50.6l5.45-8.37a26.54,26.54,0,0,0-8.27-4.51A31.15,31.15,0,0,0,526,36.12m-40.51,22H468.87c.32-4.32,1.18-7.43,2.59-9.31a7,7,0,0,1,6-2.82q7.89,0,8.08,11.47Zm14.57,3.57q0-12-6.11-18.8t-16.92-6.77a21.53,21.53,0,0,0-20.59,13.12,33.1,33.1,0,0,0-2.72,13.67q0,12,6.48,19.18t18.62,7.14a30.44,30.44,0,0,0,19.45-7L492.18,74a30,30,0,0,1-6.11,3.33,16.14,16.14,0,0,1-5.82,1.08q-5,0-7.81-2.53t-3.57-8.84H499.8a43.53,43.53,0,0,0,.28-5.36m-56.3,27.54a23.17,23.17,0,0,0,9-1.69L449.89,77a6.17,6.17,0,0,1-2.44.47c-1.69,0-2.54-1-2.54-3.1V16.29l-14.85,1.6V75q0,6.85,3.62,10.57t10.1,3.71M408.54,36.12a24,24,0,0,0-12.88,3.43,22.72,22.72,0,0,0-8.55,9.55,31.23,31.23,0,0,0-3,14,29.74,29.74,0,0,0,3,13.77A21.77,21.77,0,0,0,395.66,86a25.66,25.66,0,0,0,13.16,3.24,26.26,26.26,0,0,0,16.83-5.92l-6.49-9.21a31.62,31.62,0,0,1-5,2.58,12.53,12.53,0,0,1-4.61.8,8.69,8.69,0,0,1-7.33-3.29Q399.71,70.91,399.7,63q0-8.17,2.54-11.85a8.56,8.56,0,0,1,7.52-3.66,15.64,15.64,0,0,1,9.5,3.57l6.39-8.84a25.84,25.84,0,0,0-7.8-4.6,27.18,27.18,0,0,0-9.31-1.51M354,78.61A5.63,5.63,0,0,1,349.75,77a6.55,6.55,0,0,1-1.55-4.66,6.36,6.36,0,0,1,2.49-5.54Q353.18,65,358.26,65h3.66v8.84q-2.82,4.79-7.89,4.79m22.47-5.45V53.8q0-8.84-5-13.26t-15.7-4.42a49.79,49.79,0,0,0-9.16.94A57.83,57.83,0,0,0,337,39.79l3.39,9.78a59.51,59.51,0,0,1,7.14-1.93,30.63,30.63,0,0,1,5.92-.71q4.71,0,6.58,1.65c1.26,1.1,1.88,3.12,1.88,6.06V56.8h-5.07q-11.39,0-17.39,4.33t-6,12.5a15.06,15.06,0,0,0,4.42,11.28q4.42,4.32,11.84,4.32,10.16,0,15.05-7.52a10.72,10.72,0,0,0,4.51,5.22,18.18,18.18,0,0,0,7.52,2l3.1-9.68a4.88,4.88,0,0,1-2.59-2,8.3,8.3,0,0,1-.79-4.14m-50.64,2.73a10.93,10.93,0,0,1-5.35,1.59,4.2,4.2,0,0,1-3.58-1.5q-1.12-1.5-1.12-5V48.06h9.87l1.6-10.34H315.81V25.22L301,26.91V37.72H293.9V48.06H301V71.19q0,18,16.36,18a26,26,0,0,0,7.19-1,21.66,21.66,0,0,0,6.35-2.91ZM273.31,36.12a24,24,0,0,0-12.88,3.43,22.81,22.81,0,0,0-8.56,9.55,31.36,31.36,0,0,0-3,14,29.86,29.86,0,0,0,3,13.77A21.86,21.86,0,0,0,260.43,86a25.6,25.6,0,0,0,13.16,3.24,26.25,26.25,0,0,0,16.82-5.92l-6.48-9.21a32.52,32.52,0,0,1-5,2.58,12.57,12.57,0,0,1-4.61.8A8.67,8.67,0,0,1,267,74.19q-2.53-3.28-2.54-11.18,0-8.17,2.54-11.85a8.54,8.54,0,0,1,7.52-3.66A15.61,15.61,0,0,1,284,51.07l6.39-8.84a25.6,25.6,0,0,0-7.8-4.6,27.16,27.16,0,0,0-9.3-1.51M228,58.12H211.4c.32-4.32,1.18-7.43,2.59-9.31A7,7,0,0,1,220,46q7.89,0,8.08,11.47Zm15.28,3.57q0-12-6.11-18.8t-16.92-6.77A21.53,21.53,0,0,0,199.7,49.24,33.1,33.1,0,0,0,197,62.91q0,12,6.48,19.18t18.62,7.14a30.44,30.44,0,0,0,19.45-7L235.42,74a30,30,0,0,1-6.11,3.33,16.14,16.14,0,0,1-5.82,1.08q-5,0-7.81-2.53t-3.57-8.84H243a43.53,43.53,0,0,0,.28-5.36M166.86,78.33q-4.61,0-7.62-4.42v-21a13.57,13.57,0,0,1,3.9-4.33,8.32,8.32,0,0,1,4.75-1.5,6.4,6.4,0,0,1,5.92,3.43q2,3.43,2,12.27,0,15.6-8.93,15.6m5.73-42.21a18.2,18.2,0,0,0-7.71,1.74,18.38,18.38,0,0,0-6.67,5.41l-.75-5.55H144.39v63l14.85,0V84.06a15.45,15.45,0,0,0,12.13,5.17A16.9,16.9,0,0,0,181.9,85.8a21.57,21.57,0,0,0,6.91-9.49,37.37,37.37,0,0,0,2.39-13.77q0-12.51-4.6-19.46t-14-7"/><path class="cls-1" d="M67.85,0H0V67.85A67.85,67.85,0,0,0,67.85,135.7h0a67.89,67.89,0,0,0,22.46-3.82,16.33,16.33,0,0,0,.81-5.32c0-9.1-4.85-13.14-31.53-19.2C33.51,101.29,15.32,93,15.32,65.11c0-25.68,22.64-41.44,50.54-41.44,22,0,38.2,8.28,51.54,22.23L97,65.71c-9.1-9.3-19.21-14.55-32.15-14.55-15.16,0-20.21,6.47-20.21,12.73,0,8.9,6.06,11.73,28.5,17,19.16,4.49,40.08,10.76,45.78,31.63A67.56,67.56,0,0,0,135.7,67.85h0A67.85,67.85,0,0,0,67.85,0Z"/></g></g></svg>